<svg xmlns="http://www.w3.org/2000/svg" viewBox="0 0 274 79"><path d="M17.6 46.89C15.98 48.68 14.55 49 8.19 49H.69l1.91-2.11c6.17-6.83 28.52-13.38 59.23-17.34 11.79-1.52 12.7-1.81 20.5-6.51C95.82 14.93 116.21 6.75 131 3.54c10.47-2.28 39.83-3.14 54.15-1.59 21.38 2.32 27.93 4.12 51.38 14.14 8.82 3.77 19.17 7.61 23 8.53 3.84.92 7.53 1.82 8.21 1.99.87.23 1.2 2.6 1.1 7.89-.16 8.28-1.05 9.02-4.25 3.54-1.55-2.66-1.73-3.84-.88-6.08l1.04-2.77-8.12-1.15c-19.49-2.78-34.2-5.36-35.08-6.17-.56-.52.04-.89 1.5-.92 1.35-.02 3.8-.62 5.45-1.33l3-1.3-4-2.04c-6.76-3.46-20.15-7.23-33.38-9.4-17.93-2.93-48.33-2.26-64.75 1.44-14.79 3.33-39.95 13.59-46.87 19.11-1.87 1.49-1.57 1.56 4.5.95 3.57-.35 6.26-.38 5.97-.06-1.16 1.26-19.71 4.76-35.65 6.72-23.85 2.93-34.54 6.12-39.72 11.85m50.61 21.86L67.92 78H59V48h11.89l5.43 9.06 5.43 9.06 5.38-9.09 5.37-9.09 6 .28 6 .28v29h-9v-8.75c0-4.81-.23-8.74-.5-8.72-.27.01-2.91 4.06-5.86 9-7.11 11.9-7.91 11.88-15.14-.28l-5.5-9.25Zm-22.33 9.18c-7.74 1.66-12.8 1.28-20.65-1.57-3.96-1.43-7.23-5.19-7.23-8.31 0-1.89 8.02-1.18 10.73.95 1.96 1.55 4.04 2 9.15 1.98 11.16-.02 12.33-3.16 1.67-4.47C23.84 64.58 19 62.24 19 56.6c0-5.87 6.58-9.6 16.9-9.59 7.61 0 12.89 1.63 16.27 5.01 4.35 4.35 3.78 5.98-2.09 5.98-2.7 0-5.07-.47-5.26-1.05-.53-1.58-7.81-2.95-12.09-2.28-7.52 1.18-5.07 3.64 4.77 4.77 3.3.38 7.63 1.12 9.62 1.63 12.41 3.21 11.61 14.11-1.24 16.86M206 71.5c0 5.83-.21 6.5-2 6.5-1.91 0-2-.67-2-15V48h12.55c16.06 0 19.45 1.48 19.45 8.51 0 1.32-1.11 3.22-2.56 4.36l-2.56 2.01 2.06 2.06c1.38 1.38 2.06 3.36 2.06 5.98 0 2.15.29 4.67.64 5.59.51 1.31.14 1.59-1.75 1.33-2.09-.3-2.46-.99-2.92-5.65-.31-3.08-1.15-5.69-2-6.23-.81-.51-5.86-.94-11.22-.94L206 65ZM169 74c-1.55 3.04-2.64 4-4.51 4h-2.47l3.51-6.25c1.94-3.44 5.65-10.18 8.24-14.99 6.73-12.44 7.13-12.31 16.79 5.49 4.25 7.84 7.91 14.59 8.14 15s-.67.75-1.99.75c-1.84 0-2.83-.94-4.21-4l-1.8-4h-19.66Zm98.99 2.25c-2.53 1.26-5.83 1.74-11.99 1.71-11.51-.05-15.5-1.88-17.92-8.24-.95-2.51-.84-2.72 1.44-2.72 1.48 0 2.48.58 2.48 1.43 0 2.33 4.82 5.42 9.57 6.13 8.99 1.35 18.41-1.85 16.91-5.74-.85-2.22-1.86-2.54-13.77-4.31-13.45-2-16.93-4.52-15.28-11.07.97-3.89 5.97-5.84 15.07-5.88 9.18-.05 13.55 1.7 15.98 6.41 2.01 3.89 1.92 5.03-.43 5.03-1.13 0-2.49-1.14-3.25-2.72-1.8-3.77-5.27-5.25-12.3-5.25-7 0-10.87 1.62-11.32 4.74-.41 2.84 2.47 4 13.28 5.34 8.45 1.04 14.21 3.24 15.93 6.09 1.66 2.73-.45 7.07-4.4 9.05m-115.66.39c-4.79 2-15 1.69-20.06-.6-11-5-11.16-20.09-.27-26.49 4.66-2.73 16.92-2.86 21.79-.23 3.23 1.74 7.2 6.94 7.21 9.43 0 2.42-3.52 1.13-5.5-2.01-2.65-4.21-5.87-5.71-12.35-5.73-10.14-.02-15.93 5.14-14.84 13.25.89 6.64 6.72 10.76 15.19 10.71 4.47-.02 11.33-3.5 12.66-6.42 1.23-2.7 4.84-3.54 4.84-1.13 0 2.29-5.12 7.73-8.67 9.22M206 51v10h10.43c11.27 0 13.99-1.09 13.37-5.35-.48-3.35-4.47-4.62-14.55-4.64Zm-29.31 8.25L173.04 66h14.99l-3.58-7.1c-1.97-3.91-3.7-6.95-3.84-6.75-.15.19-1.91 3.39-3.92 7.1" fill="#ffffff"/></svg>