<svg xmlns="http://www.w3.org/2000/svg" viewBox="730 260 1240 1620" role="img" aria-label="Barrel icon">
  <g
    fill="none"
    stroke="#fbbf24"
    stroke-width="78"
    stroke-linecap="round"
    stroke-linejoin="round"
  >
    <path
      d="M14010 16582.5v-35H6400v35c0 56.6 45.9 102.5 102.5 102.5h7405c56.6 0 102.5-45.9 102.5-102.5zM6400 16282.5h7610v-35c0-56.6-45.9-102.5-102.5-102.5h-7405c-56.6 0-102.5 45.9-102.5 102.5zM14270 16415c0-36.6-14.8-69.7-38.8-93.7-24-24-57.1-38.8-93.7-38.8H6295.8c-73.1 0-132.5 59.3-132.5 132.5 0 36.6 14.9 69.7 38.8 93.7 24 24 57.1 38.8 93.7 38.8h7841.7c73.2 0 132.5-59.3 132.5-132.5zM13437.5 17680h-6465c-236.1 0-427.5-191.4-427.5-427.5V16685h7320v567.5c0 236.1-191.4 427.5-427.5 427.5zM14482.8 6410c69.6 0 126.1-56.5 126.1-126.1v-124.6c0-468.9-87.1-956.5-186.6-1412.1-134.9-618-337.8-1293.3-785.8-1760.3-244.9-255.2-556.7-436.4-877.5-585.3-808.2-375-1667.1-530.6-2554-530.6-886.9 0-1745.8 155.6-2554 530.6-320.8 148.9-632.6 330.1-877.5 585.3-448 467-650.9 1142.3-785.8 1760.3-99.5 455.6-186.6 943.2-186.6 1412.1v124.6c0 69.6 56.46 126.1 126.12 126.1 2851.85-570.9 5703.68-570.9 8555.58 0zM14607.9 12540.2c-30 2171.1-742.9 3604.8-742.9 3604.8H6545s-712.9-1433.7-742.92-3604.8c-1.08-77.6 61.19-141.2 138.75-141.2 2847.94-358 5690.77-359.3 8528.37 0 77.5 0 139.8 63.6 138.7 141.2z"
      transform="matrix(.13333 0 0 -.13333 0 2666.667)"
    />
    <path
      d="M14490 12399V6410c-2809.3-580.4-5667.53-561.7-8570 0v5989c2856.67-358.7 5713.3-358.7 8570 0z"
      transform="matrix(.13333 0 0 -.13333 0 2666.667)"
    />
  </g>
</svg>
